<svg xmlns="http://www.w3.org/2000/svg" viewBox="0 0 24 24"><path d="M7.49,22.582a4.921,4.921,0,0,1-1.139-1.054A13.94,13.94,0,0,1,5.376,20.2a12.867,12.867,0,0,1-1.631-3.331,12.525,12.525,0,0,1-.681-3.982,7.4,7.4,0,0,1,.918-3.747,5.29,5.29,0,0,1,1.924-2,5.134,5.134,0,0,1,2.6-.77,4.272,4.272,0,0,1,1.035.138c.266.073.587.192.981.339.5.192.778.311.87.339a2.162,2.162,0,0,0,.733.155,2.211,2.211,0,0,0,.591-.119c.133-.046.384-.128.742-.284.353-.128.634-.238.856-.32a7.652,7.652,0,0,1,.962-.239,4.513,4.513,0,0,1,1.052-.045,6.229,6.229,0,0,1,1.777.384,4.791,4.791,0,0,1,2.251,1.8,4.533,4.533,0,0,0-.664.5,5.6,5.6,0,0,0-1.127,1.379,4.673,4.673,0,0,0-.59,2.308,4.727,4.727,0,0,0,.77,2.62,4.881,4.881,0,0,0,1.405,1.408,3.6,3.6,0,0,0,.77.412c-.11.343-.231.678-.371,1.008a13.024,13.024,0,0,1-1.146,2.116c-.395.577-.707,1.008-.943,1.292a5.142,5.142,0,0,1-1.081,1,2.408,2.408,0,0,1-1.33.4,2.941,2.941,0,0,1-.948-.116c-.265-.087-.527-.185-.784-.3a6.41,6.41,0,0,0-.829-.312,4.159,4.159,0,0,0-1.066-.134,4.276,4.276,0,0,0-1.063.132,6.689,6.689,0,0,0-.831.3c-.385.161-.637.266-.783.312a4.081,4.081,0,0,1-.907.16,2.519,2.519,0,0,1-1.362-.412ZM13.769,5.67a3.4,3.4,0,0,1-1.807.4A3.673,3.673,0,0,1,12.209,4.2a5.048,5.048,0,0,1,.916-1.539A4.97,4.97,0,0,1,14.619,1.51a4.227,4.227,0,0,1,1.731-.5,4.166,4.166,0,0,1-.229,1.9,5.438,5.438,0,0,1-.916,1.613,4.629,4.629,0,0,1-1.453,1.154Z"/></svg>