<svg width="41" height="31" viewBox="0 0 41 31" fill="none"
    xmlns="http://www.w3.org/2000/svg">
    <rect width="19.0227" height="7.3657" fill="#FCF3EA"/>
    <path d="M19.0227 7.36569H11.4136C11.4136 7.36569 11.5932 10.1853 11.4136 11.9773C11.2402 13.7077 11.1184 14.9603 10.5449 16.3451C9.97122 17.7298 9.13051 18.9881 8.07069 20.0479C7.0108 21.1078 5.75258 21.9485 4.36782 22.5221C2.98306 23.0957 1.49885 23.3909 0 23.3909V31C2.49812 31 4.97172 30.508 7.2797 29.552C9.58761 28.596 11.6847 27.1948 13.4511 25.4284C15.2175 23.6619 16.6187 21.5649 17.5747 19.2569C18.5307 16.949 19.0227 14.4754 19.0227 11.9773V7.36569Z" fill="#FCF3EA"/>
    <path fill-rule="evenodd" clip-rule="evenodd" d="M30.3054 0H21.5847V31H25.4563L30.3054 0ZM28.0494 31H32.0248V30.997C36.502 30.8782 40.095 27.2115 40.095 22.7056C40.095 19.6829 38.4781 17.0379 36.0621 15.5882C38.5504 14.1404 40.2231 11.4448 40.2231 8.35847C40.2231 4.08896 37.022 0.567119 32.8889 0.0621268L28.0494 31Z" fill="#FCF3EA"/>
</svg>
