<svg xmlns="http://www.w3.org/2000/svg" viewBox="0 0 24 24"><path d="M12,2A10,10,0,1,0,22,12,10.029,10.029,0,0,0,12,2Zm4.6,14.45a.6.6,0,0,1-.851.2c-2.35-1.45-5.3-1.751-8.8-.951a.618.618,0,1,1-.3-1.2c3.8-.851,7.1-.5,9.7,1.1A.6.6,0,0,1,16.6,16.45Zm1.2-2.75a.756.756,0,0,1-1.052.25A12.958,12.958,0,0,0,6.8,12.8a.76.76,0,0,1-.45-1.451A14.636,14.636,0,0,1,17.6,12.7.706.706,0,0,1,17.8,13.7Zm.1-2.8C14.7,9,9.35,8.8,6.3,9.751A.918.918,0,0,1,5.75,8c3.55-1.05,9.4-.85,13.1,1.351a.967.967,0,0,1,.349,1.3A1.046,1.046,0,0,1,17.9,10.9Z"/></svg>